<svg width="41" height="13" viewBox="0 0 41 13" fill="none" xmlns="http://www.w3.org/2000/svg">
<g clip-path="url(#clip0_101_1062)">
<g clip-path="url(#clip1_101_1062)">
<path d="M24.7638 7.135C24.7638 7.135 24.6836 6.82391 24.6836 6.59333V2.98594H26.0508V9.93423L21.6736 6.10408C21.4394 5.89379 21.3008 5.65899 21.3008 5.65899C21.3008 5.65899 21.3702 5.91788 21.3702 6.14191L21.369 9.77741H20.001V2.85638L24.338 6.60961C24.5706 6.81778 24.7638 7.135 24.7638 7.135Z" fill="white" fill-opacity="0.8"/>
<path d="M37.1435 2.98724C39.3101 2.98724 39.8649 3.8901 39.8649 5.18774C39.8649 6.12821 39.2095 7.04966 37.8877 7.15871L37.7429 7.16611C37.7429 7.16611 37.8707 7.18999 38.0043 7.32588L40.4031 9.77787H38.5495L35.2007 6.18485H36.8681C38.3617 6.18485 38.4051 5.35322 38.4153 5.14356C38.4433 4.6038 38.2799 4.17224 37.1409 4.17224H35.2343V9.77787H33.8135V2.98724H37.1435Z" fill="white" fill-opacity="0.8"/>
<path d="M26.667 6.47905C26.667 3.63417 28.9204 2.88666 30.8146 2.88666C31.573 2.88666 32.2446 2.95851 32.9514 3.11681L32.9534 4.55943C32.547 4.42734 31.7308 4.13738 30.8148 4.13738C29.019 4.13738 28.147 4.87454 28.147 6.47883C28.147 7.79296 29.087 8.63008 30.8148 8.63008C31.7308 8.63008 32.648 8.39972 33.0922 8.22663L33.0896 9.62614C32.3836 9.78359 31.5732 9.88081 30.8148 9.88081C28.7916 9.88102 26.667 8.84185 26.667 6.47905Z" fill="white" fill-opacity="0.8"/>
<path d="M11.2803 3.16107L12.6137 4.48809C12.5773 4.50521 12.5353 4.52634 12.4859 4.55255C12.4087 4.59503 12.3167 4.65188 12.2065 4.73261C11.9867 4.89217 11.7003 5.14705 11.3339 5.56487L8.72789 8.47907C8.28129 8.97784 7.82749 9.37305 7.40549 9.58206L6.07129 8.25462C6.10769 8.23666 6.14969 8.21679 6.19829 8.18932C6.27549 8.14769 6.36749 8.08999 6.47769 8.01052C6.69689 7.84948 6.98409 7.59608 7.35089 7.17763L9.95629 4.26829C10.4031 3.77016 10.8577 3.37009 11.2803 3.16107Z" fill="white" fill-opacity="0.8"/>
<path d="M6.11912 10.2059C6.70852 10.2059 7.25032 10.0824 7.61792 9.88102C7.78592 9.78845 8.02572 9.6291 8.23192 9.45918C8.43732 9.2899 8.72852 9.02614 8.97472 8.7495L11.5833 5.84355C12.2413 5.11125 12.6367 4.88511 12.8767 4.79614L14.2147 6.13541C13.9355 6.45094 10.6053 10.1989 10.6053 10.1989C10.3783 10.458 10.1391 10.708 9.97652 10.8655C9.82032 11.0176 9.55312 11.2444 9.41512 11.3511C8.63192 11.9575 7.58572 12.4492 6.17692 12.4492C2.98472 12.4492 0.40332 9.70371 0.40332 6.54224C0.40332 2.62037 3.30312 0.344642 5.94412 0.344642C6.75372 0.319281 7.40332 0.463205 7.91692 0.647495C8.39152 0.818048 8.74992 1.02432 9.00992 1.16465C8.70252 1.37282 8.40512 1.65665 7.91492 2.20995L7.37932 2.81755C7.25612 2.76747 6.70972 2.56606 6.00832 2.58867C4.31372 2.64151 2.46032 4.093 2.52712 6.47419C2.58932 8.70068 4.32612 10.2059 6.11912 10.2059Z" fill="white" fill-opacity="0.8"/>
<path d="M11.0515 2.88262C10.8829 2.97582 10.6437 3.13475 10.4363 3.30467C10.2315 3.47395 9.9405 3.73771 9.6935 4.01372L7.0855 6.9203C6.4275 7.6526 6.0319 7.87789 5.7921 7.96708L4.4541 6.62908C4.7341 6.3127 8.0637 2.56539 8.0637 2.56539C8.2913 2.30629 8.5299 2.05627 8.6925 1.89819C8.8487 1.74602 9.1159 1.5201 9.2551 1.41252C10.0369 0.806185 11.0845 0.314392 12.4933 0.314392C15.6853 0.314392 18.2655 3.06015 18.2655 6.22076C18.2655 10.1439 15.3663 12.4184 12.7247 12.4184C11.9157 12.4444 11.2655 12.3004 10.7527 12.1147C10.2769 11.9447 9.9171 11.7372 9.6577 11.5975C9.9825 11.3659 10.2605 11.1118 10.7545 10.5541L11.2893 9.94651C11.4125 9.99575 11.9591 10.1974 12.6611 10.1754C14.3551 10.1219 16.2091 8.66895 16.1423 6.28839C16.0795 4.06296 14.3415 2.55715 12.5495 2.55715C11.9591 2.55715 11.4197 2.68121 11.0515 2.88262Z" fill="white" fill-opacity="0.8"/>
</g>
</g>
<defs>
<clipPath id="clip0_101_1062">
<rect width="40" height="12.1348" fill="white" transform="translate(0.404785 0.313416)"/>
</clipPath>
<clipPath id="clip1_101_1062">
<rect width="40" height="12.1348" fill="white" transform="translate(0.404785 0.313416)"/>
</clipPath>
</defs>
</svg>
