<svg width="44" height="9" viewBox="0 0 44 9" fill="none" xmlns="http://www.w3.org/2000/svg">
<g clip-path="url(#clip0_101_1028)">
<g clip-path="url(#clip1_101_1028)">
<path d="M28.9272 7.4726C29.5038 7.48522 30.0617 7.26394 30.4787 6.8573L31.2485 7.70309C30.7399 8.23622 30.0368 8.63105 28.941 8.63105C27.0635 8.63105 25.8518 7.36036 25.8518 5.64072C25.8442 5.25531 25.9112 4.87216 26.0489 4.51319C26.1866 4.15423 26.3923 3.8265 26.6542 3.54875C26.9162 3.27101 27.2292 3.0487 27.5754 2.89455C27.9216 2.7404 28.2942 2.65743 28.6719 2.65039H28.776C30.6397 2.65039 31.6963 4.09745 31.604 6.10571H27.1931C27.3502 6.93947 27.9237 7.4706 28.9272 7.4706V7.4726ZM30.2705 5.14167C30.1527 4.36402 29.6971 3.79081 28.7838 3.79081C28.4002 3.76794 28.0224 3.89478 27.7271 4.14562C27.4317 4.39646 27.2408 4.75253 27.1931 5.14167H30.2705Z" fill="white" fill-opacity="0.8"/>
<path d="M-0.000366211 7.40982L3.39126 3.89438H0.080153V2.79004H4.96236V3.91642L1.57074 7.43187H5.00753V8.5342H-0.000366211V7.40982Z" fill="white" fill-opacity="0.8"/>
<path d="M8.81588 7.4726C9.39247 7.48522 9.95042 7.26394 10.3674 6.8573L11.1372 7.70309C10.6285 8.23622 9.92548 8.63105 8.82963 8.63105C6.95216 8.63105 5.74044 7.36036 5.74044 5.64072C5.73289 5.25564 5.79975 4.87281 5.9372 4.5141C6.07466 4.1554 6.28001 3.82784 6.54153 3.55015C6.80306 3.27246 7.11563 3.05007 7.46138 2.89568C7.80714 2.7413 8.17932 2.65795 8.55665 2.65039H8.66074C10.5245 2.65039 11.581 4.09745 11.4887 6.10571H7.08178C7.23889 6.93947 7.81234 7.4706 8.81588 7.4706V7.4726ZM10.1592 5.14167C10.0413 4.36402 9.58573 3.79081 8.67252 3.79081C8.2889 3.76794 7.91112 3.89478 7.61573 4.14562C7.32035 4.39646 7.12947 4.75253 7.08178 5.14167H10.1592Z" fill="white" fill-opacity="0.8"/>
<path d="M18.8083 5.64654C18.8083 3.80865 20.1536 2.66022 21.6343 2.66022C21.9896 2.65553 22.3416 2.73025 22.6656 2.87913C22.9896 3.02801 23.2778 3.24745 23.5099 3.52204V0.130859H24.7078V8.51862H23.5099V7.71692C23.2821 8.00303 22.9943 8.23319 22.6676 8.39036C22.3409 8.54752 21.9837 8.62766 21.6226 8.62485C21.2499 8.62196 20.8814 8.54419 20.5382 8.39598C20.195 8.24776 19.8837 8.032 19.6222 7.76102C19.3607 7.49004 19.1541 7.16915 19.0141 6.81666C18.8741 6.46417 18.8035 6.087 18.8064 5.70667C18.8064 5.68262 18.8064 5.66057 18.8064 5.63852L18.8083 5.64654ZM23.5766 5.6265C23.5691 5.14004 23.3735 4.67633 23.0325 4.3364C22.6914 3.99647 22.2325 3.80788 21.7558 3.81171C21.2791 3.81555 20.8232 4.0115 20.4875 4.35687C20.1517 4.70224 19.9633 5.16904 19.9633 5.65556C19.9633 6.14208 20.1517 6.60888 20.4875 6.95425C20.8232 7.29962 21.2791 7.49557 21.7558 7.49941C22.2325 7.50324 22.6914 7.31465 23.0325 6.97472C23.3735 6.63479 23.5691 6.17108 23.5766 5.68462V5.6265Z" fill="white" fill-opacity="0.8"/>
<path d="M32.3805 7.30043L33.4646 6.72521C33.6084 6.98596 33.8192 7.20175 34.0742 7.34937C34.3292 7.49699 34.6189 7.57084 34.912 7.56298C35.5895 7.56298 35.941 7.20823 35.941 6.80538C35.941 6.34641 35.2851 6.24219 34.5663 6.09387C33.606 5.89345 32.6024 5.56475 32.6024 4.38225C32.6024 3.47433 33.4489 2.63655 34.7843 2.64657C35.835 2.64657 36.6146 3.07147 37.0565 3.76093L36.0647 4.32413C35.9256 4.11396 35.7363 3.94348 35.5147 3.8288C35.293 3.71412 35.0464 3.65903 34.798 3.66874C34.1539 3.66874 33.8259 3.99142 33.8259 4.3582C33.8259 4.77107 34.3464 4.88732 35.1594 5.0697C36.0864 5.27013 37.137 5.5868 37.137 6.78133C37.137 7.58303 36.4595 8.64327 34.853 8.63125C33.6747 8.63125 32.8518 8.14822 32.3785 7.29842" fill="white" fill-opacity="0.8"/>
<path d="M40.3923 5.96722L39.4417 7.02346V8.51862H38.2438V0.130859H39.4417V5.62249L41.985 2.77245H43.4441L41.2387 5.23166L43.4991 8.51862H42.144L40.3923 5.96722Z" fill="white" fill-opacity="0.8"/>
<path d="M15.1858 2.65825C13.762 2.65825 12.5699 3.60025 12.5699 5.16356V8.51866H13.7915V5.31187C13.7915 4.36988 14.3217 3.80669 15.2271 3.80669C16.1324 3.80669 16.5841 4.36988 16.5841 5.31187V8.51866H17.7998V5.16156C17.7998 3.59824 16.6077 2.65625 15.1839 2.65625" fill="white" fill-opacity="0.8"/>
</g>
</g>
<defs>
<clipPath id="clip0_101_1028">
<rect width="43.5" height="8.5" fill="white" transform="translate(0 0.130829)"/>
</clipPath>
<clipPath id="clip1_101_1028">
<rect width="43.5" height="8.5" fill="white" transform="translate(0 0.130829)"/>
</clipPath>
</defs>
</svg>
