<svg width="31" height="11" viewBox="0 0 31 11" fill="none" xmlns="http://www.w3.org/2000/svg">
<g clip-path="url(#clip0_101_1026)">
<path d="M13.3052 0.386886L8.11474 4.28151C7.87079 3.32357 7.30702 2.47208 6.51225 1.86125C5.71749 1.25041 4.73698 0.914968 3.72521 0.907779H0V9.85994H3.72521C4.74237 9.87333 5.73338 9.54554 6.5324 8.93144C7.33146 8.31729 7.89006 7.45408 8.11474 6.48622L13.3052 10.3808L18.4957 6.48622V9.85994H24.3505V8.04286H20.4887V0.901722H18.3591V4.27544L13.4356 8.17004L12.3739 7.26151L14.7705 5.44444L17.2974 3.50015L15.8322 2.33116L10.9087 6.09251L9.84697 5.18397L14.7705 1.54981L13.3052 0.380829V0.386886ZM1.99299 2.7188H3.58864C3.91882 2.71943 4.24499 2.78968 4.54478 2.92474C4.84928 3.06137 5.12349 3.25479 5.3519 3.49409C5.59229 3.74598 5.78189 4.03983 5.91068 4.36022C6.17545 5.04119 6.17545 5.79315 5.91068 6.47411C5.79024 6.79354 5.61142 7.08908 5.38294 7.34629C5.16087 7.59915 4.88835 7.80522 4.58201 7.95201C4.26648 8.10062 3.92041 8.17726 3.57 8.17611H1.99299V2.72486V2.7188ZM30.9938 8.04286V9.85994H25.1452V0.901722H27.2748V8.04286H31H30.9938Z" fill="white" fill-opacity="0.8"/>
</g>
<defs>
<clipPath id="clip0_101_1026">
<rect width="31" height="10" fill="white" transform="translate(0 0.380829)"/>
</clipPath>
</defs>
</svg>
