<svg width="28" height="11" viewBox="0 0 28 11" fill="none" xmlns="http://www.w3.org/2000/svg">
<g clip-path="url(#clip0_101_906)">
<path d="M3.59646 2.6201H0.858887L0.858887 0.0674438H9.367V2.6201H6.62884V10.0674H3.59646V2.6201ZM9.83781 0.0674438H18.1105V2.6201H12.8704V3.85144H18.1105V6.25348H12.8704V7.51478H18.1105V10.0674H9.83781V0.0674438ZM18.6106 0.0674438H23.586C26.854 0.0674438 28.0017 2.53002 28.0017 5.05263C28.0017 8.11563 26.4117 10.0674 22.9971 10.0674H18.6106V0.0674438ZM21.6433 7.51478H22.8203C24.7044 7.51478 24.97 5.95352 24.97 5.02266C24.97 4.39175 24.7639 2.65016 22.5849 2.65016H21.6131L21.6433 7.51478Z" fill="white" fill-opacity="0.8"/>
</g>
<defs>
<clipPath id="clip0_101_906">
<rect width="27.1429" height="10" fill="white" transform="translate(0.857178 0.0674133)"/>
</clipPath>
</defs>
</svg>
