<svg width="61" height="12" viewBox="0 0 61 12" fill="none" xmlns="http://www.w3.org/2000/svg">
<g clip-path="url(#clip0_101_894)">
<g clip-path="url(#clip1_101_894)">
<path fill-rule="evenodd" clip-rule="evenodd" d="M5.79777 8.21214L7.46818 9.91892L6.07472 11.4031C5.62285 11.8844 4.89009 11.8844 4.43823 11.4031L0.960724 7.69934C0.50886 7.21793 0.50886 6.43764 0.960724 5.95638C1.41273 5.47511 2.14535 5.47511 2.59721 5.95638L5.25647 8.78866L5.79777 8.21214ZM6.23199 7.74967L7.7115 6.1739L9.34784 7.91687L7.9855 9.36791L6.23199 7.74967Z" fill="#CECCD3"/>
<path fill-rule="evenodd" clip-rule="evenodd" d="M12.9262 9.3347L11.1826 7.70579L15.28 3.34184C15.7318 2.86058 16.4645 2.86058 16.9165 3.34184C17.3683 3.82311 17.3683 4.60339 16.9165 5.08481L12.9262 9.3347ZM12.384 9.91223L10.9847 11.4026C10.5327 11.8838 9.80005 11.8838 9.34818 11.4026L3.4158 5.0842C2.96394 4.60278 2.96394 3.82249 3.4158 3.34123C3.86767 2.85981 4.60028 2.85981 5.05229 3.34123L10.1664 8.78812L10.7416 8.17549L12.384 9.91223Z" fill="#CECCD3"/>
<path fill-rule="evenodd" clip-rule="evenodd" d="M10.4121 7.3065L12.0409 5.55543L15.0764 8.78846L17.7351 5.9568C18.1871 5.47553 18.9197 5.47553 19.3716 5.9568C19.8234 6.43822 19.8234 7.2185 19.3716 7.69976L15.8946 11.4029C15.4428 11.8842 14.7102 11.8842 14.2583 11.4029L10.4121 7.3065ZM9.73738 6.58786L5.87088 2.46978C5.41902 1.98852 5.41902 1.20823 5.87088 0.72697C6.32289 0.245551 7.05551 0.245551 7.50737 0.72697L11.3779 4.84931L9.73738 6.58786Z" fill="#CECCD3"/>
<path fill-rule="evenodd" clip-rule="evenodd" d="M14.4617 0.727831C14.0099 0.246566 13.2772 0.246566 12.8252 0.727831L7.71167 6.1741L9.34816 7.91707L14.4617 2.4708C14.9136 1.98938 14.9136 1.2091 14.4617 0.727831Z" fill="#CECCD3"/>
<path fill-rule="evenodd" clip-rule="evenodd" d="M25.7011 1.57833H24.2781V10.481H29.4919V9.13652H25.7011V1.57833ZM32.5716 4.25519C33.4368 4.25519 34.0174 4.63068 34.3361 5.09095L34.4044 4.37631H35.6339V10.481H34.4044L34.3361 9.76637C34.0174 10.2266 33.4368 10.6021 32.5716 10.6021C31.012 10.6021 29.9533 9.25765 29.9533 7.42866C29.9533 5.58756 31.012 4.25519 32.5716 4.25519ZM32.8676 5.53911C31.9796 5.53911 31.3421 6.27798 31.3421 7.42866C31.3421 8.57935 31.9796 9.31821 32.8676 9.31821C33.5506 9.31821 33.9604 8.93061 34.2678 8.40977V6.44755C33.9604 5.92671 33.5506 5.53911 32.8676 5.53911ZM39.0779 2.3293H37.7118V4.37631H36.6303V5.61179H37.7118V8.32499C37.7118 9.80271 38.5428 10.6021 39.852 10.6021C40.4212 10.6021 40.8424 10.4326 41.127 10.2388L40.7627 9.10019C40.5919 9.2092 40.3415 9.29399 39.9772 9.29399C39.4421 9.29399 39.0779 8.93061 39.0779 8.31287V5.61179H40.8082V4.37631H39.0779V2.3293ZM43.7854 2.3293H42.4194V4.37631H41.3379V5.61179H42.4194V8.32499C42.4194 9.80271 43.2504 10.6021 44.5596 10.6021C45.1287 10.6021 45.55 10.4326 45.8346 10.2388L45.4703 9.10019C45.2995 9.2092 45.0491 9.29399 44.6848 9.29399C44.1497 9.29399 43.7854 8.93061 43.7854 8.31287V5.61179H45.5158V4.37631H43.7854V2.3293ZM48.1174 4.37631H46.7513V10.481H48.1174V4.37631ZM47.4343 1.52988C46.9562 1.52988 46.5919 1.90536 46.5919 2.4262C46.5919 2.94704 46.9562 3.32253 47.4343 3.32253C47.9238 3.32253 48.2881 2.94704 48.2881 2.4262C48.2881 1.90536 47.9238 1.52988 47.4343 1.52988ZM52.2444 4.25519C50.4799 4.25519 49.3073 5.58756 49.3073 7.42866C49.3073 9.25765 50.4912 10.6021 52.2558 10.6021C53.2917 10.6021 54.0772 10.1055 54.5895 9.25765L53.6104 8.44611C53.3372 8.93061 52.8933 9.33032 52.2671 9.33032C51.254 9.33032 50.6962 8.49456 50.6962 7.42866C50.6962 6.35065 51.2312 5.527 52.2558 5.527C52.8933 5.527 53.3145 5.9146 53.5763 6.3991L54.5667 5.59968C54.0544 4.7518 53.2917 4.25519 52.2444 4.25519ZM57.931 4.25519C59.6955 4.25519 60.5607 5.66024 60.5607 7.3681V7.87682H56.508C56.5421 8.84582 57.0886 9.37877 58.0448 9.37877C58.7165 9.37877 59.206 9.06385 59.4678 8.67625L60.4127 9.4999C59.8435 10.2267 59.0921 10.6021 58.0334 10.6021C56.2575 10.6021 55.1192 9.26976 55.1192 7.44078C55.1192 5.59968 56.2803 4.25519 57.931 4.25519ZM57.9082 5.41799C57.1 5.41799 56.5535 5.98728 56.508 6.83515H59.2174C59.1832 5.99939 58.7279 5.41799 57.9082 5.41799Z" fill="white" fill-opacity="0.8"/>
</g>
</g>
<defs>
<clipPath id="clip0_101_894">
<rect width="60" height="11.4" fill="white" transform="translate(0.630981 0.367401)"/>
</clipPath>
<clipPath id="clip1_101_894">
<rect width="60" height="11.4" fill="white" transform="translate(0.630981 0.367401)"/>
</clipPath>
</defs>
</svg>
