<svg width="73" height="7" viewBox="0 0 73 7" fill="none" xmlns="http://www.w3.org/2000/svg">
<g clip-path="url(#clip0_101_1047)">
<g clip-path="url(#clip1_101_1047)">
<path d="M14.4768 6.23019C14.4768 6.1819 14.4768 6.10945 14.4768 6.06119C14.4495 6.06119 12.6782 6.15774 11.8061 6.15774C10.6616 6.15774 9.02655 6.13361 9.02655 6.13361L1.50525 6.08532C1.50525 6.06119 1.50525 5.96461 1.50525 5.94045L9.0538 5.91632C9.0538 5.91632 10.6889 5.94045 11.8334 5.94045C12.7054 5.94045 14.4495 5.94045 14.4768 5.94045C14.4768 5.86803 14.4495 5.74729 14.4495 5.65071C14.4222 5.65071 12.6782 5.77145 11.8334 5.77145C10.6889 5.77145 9.0538 5.699 9.0538 5.699H7.11896L4.55736 5.62658H1.5325C1.5325 5.60245 1.55975 5.50587 1.55975 5.48171C1.66876 5.50587 1.75051 5.53 2.13202 5.53C2.62254 5.53 2.84055 5.43342 2.84055 5.43342C2.84055 5.43342 3.19482 5.53 3.65807 5.53C3.87609 5.53 4.36662 5.33684 4.66637 5.40929C5.1569 5.53 5.34764 5.33684 5.34764 5.33684C5.34764 5.33684 5.45665 5.45758 5.67466 5.50587C5.83818 5.53 6.05616 5.43342 6.05616 5.43342C6.05616 5.43342 6.32868 5.60245 7.11896 5.60245C8.07276 5.60245 8.34525 5.14371 8.34525 5.14371H8.3725C8.3725 5.14371 8.34525 5.26442 8.39975 5.361C8.50876 5.55416 8.80853 5.57829 8.80853 5.57829C8.78128 5.04713 9.02655 4.68498 9.02655 4.68498H9.0538L8.9993 4.82982C8.89029 5.21613 9.08105 5.55416 9.08105 5.55416L9.16278 5.50587C9.16278 5.50587 9.08105 5.26442 9.16278 4.9264C9.24454 4.5884 9.3808 4.41937 9.3808 4.41937H9.4353C9.4353 4.41937 9.35354 4.68498 9.35354 4.87811C9.35354 5.04713 9.46255 5.45758 9.81683 5.57829C10.0893 5.67487 10.3073 5.45758 10.3073 5.45758C10.3073 5.45758 10.9069 5.60245 11.3974 5.60245C12.5692 5.60245 12.8417 5.43342 12.8417 5.43342C12.8417 5.43342 12.9234 5.55416 13.523 5.55416C13.8772 5.55416 14.1497 5.53 14.3132 5.50587C14.3677 5.50587 14.395 5.50587 14.4222 5.48171C14.4222 5.38513 14.395 5.31271 14.3677 5.21613C14.0407 3.59847 12.9779 2.19813 11.5064 1.30479L11.4246 1.52209C12.8689 2.36713 13.9317 3.69505 14.2315 5.26442C14.068 5.31271 13.8227 5.38513 13.523 5.38513C13.0597 5.38513 12.9507 5.26442 12.9507 5.26442C12.9507 5.26442 12.7872 5.361 12.4874 5.361C12.2149 5.361 12.0242 5.19198 12.0242 5.19198C12.0242 5.19198 11.7516 5.43342 11.2611 5.43342C10.6889 5.43342 10.3891 5.11955 10.2801 4.97469C10.1711 4.82982 10.1166 4.70911 10.1166 4.70911H10.0893C10.0893 4.7574 10.1166 4.82982 10.1438 4.90227C10.2256 5.09542 10.2801 5.14371 10.3073 5.19198C10.3346 5.21613 10.3618 5.28855 10.2801 5.31271C10.2256 5.33684 10.1983 5.28856 10.1711 5.26442C10.1438 5.21613 10.0348 5.09542 9.98031 4.90227C9.89858 4.68498 9.89859 4.54011 9.87133 4.41937H9.81683C9.78958 4.51595 9.78958 4.68498 9.78958 4.87811C9.81683 5.09542 9.87133 5.24027 9.89858 5.28856C9.89858 5.28856 9.92584 5.31271 9.92584 5.33684C9.92584 5.40929 9.87133 5.43342 9.81683 5.43342C9.76232 5.43342 9.70782 5.38513 9.68057 5.33684C9.4353 4.97469 9.73507 4.25037 9.81683 4.03308C9.95306 3.71921 9.98031 3.40532 9.98031 3.40532C9.98031 3.40532 10.1438 3.16389 10.2256 2.99487C10.3346 2.77758 10.4163 2.58443 10.4981 2.512C10.6071 2.41542 10.7978 2.17398 10.9886 1.86011C11.0159 1.81182 11.1794 1.4738 11.2066 1.40137C11.2339 1.35308 11.2611 1.28065 11.2884 1.23236C11.3701 0.942634 11.4519 0.604618 11.4519 0.556331C11.4519 0.483899 11.3156 0.43561 11.3156 0.43561C11.3156 0.43561 11.1794 0.387322 11.0976 0.387322C11.0431 0.387322 10.9886 0.43561 10.9341 0.459754C10.8523 0.483899 10.8251 0.459754 10.8251 0.459754C10.8251 0.459754 10.7161 0.411465 10.6616 0.43561C10.6071 0.43561 10.5526 0.508041 10.4981 0.508041C10.4163 0.532186 10.3891 0.532186 10.3891 0.532186C10.3891 0.532186 10.3073 0.508041 10.2528 0.508041C10.1983 0.532186 10.1438 0.556331 10.0348 0.628763C9.27179 0.387322 8.48151 0.266602 7.66398 0.266602C3.93059 0.266602 0.878477 2.92245 0.823975 6.23019C0.823975 6.25432 0.823975 6.39919 0.823975 6.39919H14.4768C14.4768 6.39919 14.4768 6.25432 14.4768 6.23019ZM5.78367 5.02298C5.75642 5.02298 5.78367 4.99884 5.75642 4.99884C5.94718 4.46766 6.38319 3.38118 7.09171 2.56029C7.17347 2.58443 7.22797 2.63272 7.30973 2.65686C6.79194 3.16389 6.11067 4.15379 5.78367 5.02298ZM6.19242 5.19198C6.32868 4.70911 6.68296 3.69505 7.44599 2.72929C7.52774 2.77758 7.58222 2.80173 7.66398 2.85003C7.14622 3.45361 6.51945 4.41937 6.24693 5.21613C6.21968 5.21613 6.21968 5.19198 6.19242 5.19198ZM6.73746 5.31271C6.71021 5.31271 6.73746 5.31271 6.71021 5.31271C6.81919 4.9264 7.11896 3.91234 7.82749 2.92245C7.90924 2.97074 7.96375 2.99487 8.01825 3.04316C7.52774 3.69505 6.9827 4.5884 6.73746 5.31271ZM7.25522 5.31271C7.22797 5.31271 7.22797 5.31271 7.22797 5.31271C7.33698 4.95055 7.58222 4.05721 8.18176 3.16389C8.26352 3.21218 8.34525 3.26047 8.3725 3.30876C7.9365 3.88821 7.47324 4.66082 7.25522 5.31271ZM9.0538 3.69505C8.91754 3.69505 8.72678 3.64676 8.67227 3.55018C8.69952 3.71921 8.91754 3.86405 9.1083 3.86405C9.0538 3.86405 9.02655 3.88821 8.97204 3.88821C8.72678 3.88821 8.50876 3.69505 8.50876 3.47776C8.50876 3.45361 8.50876 3.40532 8.50876 3.38118C8.69952 3.52605 9.1083 3.71921 9.35354 3.42947V3.45361C9.32629 3.57434 9.19003 3.69505 9.0538 3.69505ZM9.81683 2.75344C9.81683 2.82587 9.76232 2.85003 9.70782 2.87416C9.68057 2.89832 9.59881 2.92245 9.59881 2.94658H9.57156C9.57156 2.94658 9.54431 2.92245 9.51706 2.92245C9.51706 2.89832 9.51706 2.89832 9.51706 2.89832V2.87416V2.82587C9.51706 2.82587 9.4898 2.77758 9.51706 2.72929C9.51706 2.65686 9.59881 2.60858 9.59881 2.60858H9.62606C9.62606 2.60858 9.59881 2.65686 9.57156 2.70515C9.57156 2.72929 9.54431 2.80173 9.57156 2.85003V2.89832L9.59881 2.92245L9.62606 2.89832C9.68057 2.87416 9.68057 2.85003 9.68057 2.85003C9.68057 2.85003 9.62606 2.80173 9.65332 2.75344C9.68057 2.70515 9.76232 2.70515 9.76232 2.70515C9.78958 2.63272 9.76232 2.58443 9.76232 2.58443L9.81683 2.60858C9.78958 2.58443 9.81683 2.65686 9.81683 2.75344ZM10.1711 0.701194C10.2528 0.677049 10.2801 0.628763 10.3618 0.604618C10.4436 0.580473 10.4981 0.604618 10.5526 0.604618C10.6071 0.604618 10.6889 0.532186 10.7433 0.532186C10.7978 0.532186 10.8251 0.556331 10.8796 0.556331C10.9069 0.604618 11.0704 0.508041 11.0976 0.508041C11.1249 0.508041 11.2339 0.508041 11.2066 0.604618C11.1794 0.677049 11.1249 0.894347 11.0159 1.18408C10.9886 1.25651 10.9341 1.35308 10.8796 1.44966C10.8251 1.54624 10.7706 1.66696 10.6889 1.76353C10.3891 2.19813 10.0893 2.10155 9.51706 2.34299C9.0538 2.53614 8.86304 2.65686 8.80853 2.72929C8.75403 2.68101 8.72678 2.68101 8.67227 2.65686C8.75403 2.58443 8.94479 2.46371 9.32629 2.2947C9.73507 2.10155 10.4163 1.86011 10.5526 1.64281C10.5526 1.61867 10.5526 1.61867 10.5526 1.59452C10.3891 1.6911 10.2528 1.73939 10.1983 1.78768C9.54431 2.07741 9.29904 2.14984 8.9993 2.2947C8.86304 2.36713 8.64502 2.46371 8.50876 2.56029C8.48151 2.53614 8.427 2.512 8.39975 2.48785C8.53601 2.39128 8.72678 2.2947 8.91754 2.19813C9.21728 2.07741 9.46255 1.95669 10.1711 1.59452C10.2256 1.57038 10.5799 1.37723 10.8523 1.18408C10.8523 1.15993 10.8523 1.13579 10.8796 1.11164C10.6344 1.23236 9.84408 1.61867 9.68057 1.6911C9.02655 1.98083 9.0538 1.95669 8.75403 2.10155C8.56326 2.19812 8.3725 2.2947 8.23627 2.39128C8.20902 2.36713 8.15451 2.34299 8.12726 2.31885C8.29077 2.22227 8.427 2.12569 8.64502 2.02912C8.94479 1.88425 8.97204 1.86011 9.65332 1.57038C9.98031 1.42552 10.5799 1.06336 10.9069 0.894347C10.9069 0.870202 10.9069 0.870202 10.9069 0.84606C10.5799 1.01507 9.62606 1.44966 9.4898 1.52209C8.83578 1.78768 8.75403 1.81182 8.45426 1.95669C8.29077 2.02912 8.12726 2.12569 7.991 2.19813C7.96375 2.17398 7.9365 2.14984 7.90924 2.12569C8.01825 2.05326 8.20902 1.93254 8.45426 1.81182C8.75403 1.66696 8.80853 1.64281 9.46255 1.35308C9.54431 1.32894 9.87133 1.15993 10.1711 0.990924C10.2528 0.942634 10.3618 0.894347 10.4436 0.84606C10.5254 0.797771 10.5799 0.749484 10.6344 0.725339L10.6071 0.701194C10.4708 0.749484 10.2801 0.846057 10.2256 0.870202C9.87133 1.03921 9.4353 1.23236 9.29904 1.28065C8.64502 1.57038 8.56326 1.59452 8.26352 1.73939C8.10001 1.81182 7.90924 1.9084 7.80024 2.00497C7.77298 1.98083 7.74573 1.95669 7.71848 1.93254C7.85474 1.83596 8.0455 1.71525 8.26352 1.61867C8.56326 1.4738 8.61777 1.44966 9.27179 1.15993C9.3808 1.11164 9.4898 1.06336 9.57156 1.01507C9.59881 1.01507 9.89859 0.870202 10.1711 0.701194ZM7.9365 0.556331C8.56326 0.556331 9.19003 0.628763 9.76232 0.797771C9.65332 0.870202 9.4898 0.942634 9.27179 1.03921C8.50876 1.37723 8.427 1.40137 8.10001 1.54624C7.88199 1.64281 7.71848 1.73939 7.58222 1.83596C7.58222 1.83596 7.44599 1.66696 7.36423 1.61867C7.28248 1.57038 7.09171 1.52209 7.03721 1.49795C6.9282 1.44966 6.90095 1.40137 6.73746 1.35308C6.6012 1.30479 6.4922 1.32894 6.41044 1.32894C6.32868 1.30479 6.24693 1.28065 6.11067 1.28065C6.02891 1.28065 5.91993 1.32894 5.83818 1.32894C5.72917 1.32894 5.64741 1.30479 5.56566 1.30479C5.4839 1.32894 5.37489 1.40137 5.26588 1.40137C5.18413 1.42552 5.07515 1.40137 5.02064 1.40137C4.96614 1.42552 4.82988 1.52209 4.74812 1.54624C4.69362 1.57038 4.53011 1.57038 4.55736 1.6911C4.55736 1.78768 4.80263 1.81182 4.80263 1.81182C4.80263 1.81182 5.86543 1.93254 6.90095 2.41542C6.76469 2.58443 6.6012 2.75344 6.4922 2.94658C6.41044 2.92245 6.30143 2.89832 6.24693 2.89832C6.13792 2.89832 6.02891 2.94658 5.94718 2.92245C5.78367 2.92245 5.78367 2.89832 5.59291 2.92245C5.45665 2.94658 5.45665 2.97074 5.34764 2.99487C5.26588 3.01903 5.18413 2.99487 5.0479 3.01903C4.99339 3.04316 4.88438 3.13974 4.80263 3.16389C4.74812 3.18803 4.63912 3.18803 4.55736 3.23632C4.50286 3.28461 4.50285 3.33289 4.36662 3.38118C4.28487 3.42947 4.23036 3.40532 4.14861 3.47776C4.0941 3.57434 4.0941 3.64676 3.95784 3.74334C3.79433 3.86405 3.79433 3.96063 3.82158 3.98479C3.87609 4.08137 4.12136 3.98479 4.12136 3.98479C4.12136 3.98479 4.99339 3.71921 6.02891 3.67092C5.75642 4.15379 5.5384 4.61253 5.40214 4.9264C5.37489 4.99884 5.34764 5.07127 5.32039 5.11955C5.29314 5.11955 5.29314 5.11955 5.29314 5.11955C5.23863 5.07127 5.23863 4.99884 5.26588 4.82982C5.29313 4.66082 5.45665 4.32279 5.51115 4.25037H5.45665C5.40214 4.32279 5.23863 4.5884 5.21138 4.63669C5.1569 4.73327 5.12965 4.7574 5.02064 4.97469C4.99339 5.02298 4.93889 5.11955 4.85713 5.11955C4.80263 5.11955 4.74812 5.09542 4.74812 5.04713C4.74812 5.02298 4.77538 4.97469 4.80263 4.97469C4.93889 4.78153 5.0479 4.5884 5.07515 4.49182H5.02064C5.02064 4.49182 4.63912 5.26442 3.82158 5.26442C3.54908 5.26442 3.24932 5.14371 3.24932 5.14371C3.24932 5.14371 2.8678 5.28856 2.35003 5.28856C1.94127 5.28856 1.69601 5.21613 1.587 5.19198C2.15928 2.58443 4.69362 0.556331 7.9365 0.556331Z" fill="white" fill-opacity="0.8"/>
<path d="M26.8495 6.25431L26.795 6.23018C26.468 6.08531 26.359 5.67486 26.1955 5.3127L24.5332 1.40137H22.9526V1.52209L23.0344 1.54623C23.0344 1.54623 23.1161 1.57038 23.1434 1.59452C23.2251 1.64281 23.3069 1.73938 23.1979 1.98083C23.1979 2.10154 23.1434 2.19812 23.1434 2.19812L21.8353 5.3127C21.6991 5.65073 21.5901 6.08531 21.2631 6.23018L21.1541 6.27847V6.39918H22.9254V6.27847L22.7891 6.23018C22.6256 6.18189 22.5984 6.03702 22.7619 5.62657L22.9526 5.07126H24.8329C24.8874 5.19199 24.9419 5.36099 25.0237 5.60244C25.1055 5.84386 25.2417 6.15776 25.0509 6.25431L24.9419 6.3026V6.42334H26.8495V6.25431ZM24.5604 4.25036H23.3069L23.9337 2.70515L24.5604 4.25036Z" fill="white" fill-opacity="0.8"/>
<path d="M38.3494 1.40137V1.52209L38.4856 1.57038C38.7036 1.64281 38.6764 2.10154 38.6764 2.39127V5.40928C38.6764 5.65073 38.6764 6.15776 38.4856 6.23018L38.3494 6.27847V6.39918H40.1477V6.27847L40.0114 6.23018C39.7934 6.15776 39.8207 5.65073 39.8207 5.40928V2.39127C39.8207 1.98083 39.8752 1.61866 40.0114 1.57038L40.1477 1.52209V1.40137H38.3494Z" fill="white" fill-opacity="0.8"/>
<path d="M31.5896 1.40137V1.52209L31.7259 1.57038C31.9439 1.64281 31.9166 2.10154 31.9166 2.39127V5.40928C31.9166 5.65073 31.9166 6.15776 31.7259 6.23018L31.5896 6.27847V6.39918H33.3882V6.27847L33.252 6.23018C33.034 6.15776 33.0612 5.65073 33.0612 5.40928V2.39127C33.0612 1.98083 33.1157 1.61866 33.252 1.57038L33.3882 1.52209V1.40137H31.5896Z" fill="white" fill-opacity="0.8"/>
<path d="M21.4802 0.966447C21.0714 0.604286 20.4446 0.411133 19.7634 0.411133H17.447V0.531854L17.556 0.555999C17.8558 0.676717 17.8285 1.32861 17.8285 1.81149V4.97435V5.09508C17.8285 5.45724 17.8285 6.10914 17.556 6.20572L17.447 6.25401V6.37472H19.5726V6.25401L19.4909 6.20572C19.1093 5.9884 19.1093 5.50553 19.1093 4.99851V3.93616L19.3274 4.00861C19.3274 4.00861 19.6816 4.12932 20.0086 4.12932C20.9897 4.12932 22.0524 3.52571 22.0524 2.22194C22.0524 1.73906 21.8617 1.30446 21.4802 0.966447ZM19.4091 3.67058L19.2183 3.69471H19.1093V1.44933C19.2456 1.42518 19.4091 1.42518 19.6271 1.42518C20.0631 1.42518 20.4174 1.52176 20.6081 1.71491C20.7989 1.88392 20.8807 2.10122 20.8807 2.41509C20.8807 3.16356 20.1176 3.62229 19.4091 3.67058Z" fill="white" fill-opacity="0.8"/>
<path d="M50.4483 0.4113H49.4945H46.7693V0.556163L46.9328 0.604453C47.1781 0.701029 47.1781 1.25634 47.1781 1.57021V5.19183C47.1781 5.48154 47.1781 6.08515 46.9328 6.18173L46.7693 6.23002V6.37489H48.8132V6.23002L48.6497 6.18173C48.4044 6.08515 48.4044 5.5057 48.4044 5.19183V4.00875H49.6035C49.6035 4.00875 50.1213 3.96046 50.203 4.15362L50.2303 4.22607L50.3666 4.2502L50.4483 2.6567H50.2576L50.2303 2.75327C50.1758 2.87399 49.7125 2.92228 49.5762 2.89815H48.3772C48.3772 2.36697 48.3772 1.71508 48.3772 1.42535H49.8488C50.203 1.42535 50.3938 1.49778 50.4483 1.66679L50.4753 1.76337H50.6388L51.0203 0.338867C51.0748 0.387155 50.5843 0.4113 50.4483 0.4113Z" fill="white" fill-opacity="0.8"/>
<path d="M30.9906 5.0468L30.9633 5.07096C30.9088 5.11925 30.8543 5.14338 30.8543 5.14338C30.5273 5.33654 29.9823 5.55383 29.4374 5.55383C29.0014 5.55383 28.6471 5.43312 28.3473 5.19167C27.9931 4.8778 27.8023 4.37078 27.8023 3.79133C27.8023 2.87385 28.4018 2.2461 29.2739 2.2461C29.6826 2.2461 30.0913 2.36682 30.5001 2.60826L30.6091 2.68069L30.8271 2.80141V2.58411V1.59421V1.49763L30.6636 1.47349C30.1185 1.35277 29.6826 1.28033 29.3011 1.28033C28.5381 1.28033 27.8841 1.52177 27.3936 1.95637C26.8758 2.4151 26.576 3.11527 26.576 3.88788C26.576 4.68465 26.8485 5.33654 27.3663 5.79528C27.8841 6.25402 28.6471 6.49546 29.5191 6.49546C29.9551 6.49546 30.3638 6.42302 30.6908 6.25402H30.7181L30.7726 6.22986L30.7998 6.18157L31.1814 5.02267H30.9906V5.0468Z" fill="white" fill-opacity="0.8"/>
<path d="M44.9165 5.04674L44.753 5.14332C44.426 5.33648 43.881 5.55377 43.3359 5.55377C42.8999 5.55377 42.5456 5.43306 42.2458 5.19161C41.8916 4.87774 41.7008 4.37072 41.7008 3.79127C41.7008 2.87379 42.3003 2.24604 43.1724 2.24604C43.5812 2.24604 43.99 2.36676 44.3987 2.6082L44.7258 2.80135V1.59415V1.49757L44.5895 1.47343C44.0445 1.35271 43.6084 1.28027 43.2269 1.28027C42.4639 1.28027 41.8098 1.52171 41.3193 1.95631C40.8015 2.41504 40.5017 3.11521 40.5017 3.88782C40.5017 4.68458 40.7742 5.33648 41.292 5.79522C41.8098 6.25396 42.5729 6.4954 43.4449 6.4954C43.881 6.4954 44.2897 6.42296 44.6168 6.25396L44.6985 6.2298L45.1073 5.02261H44.9165V5.04674Z" fill="white" fill-opacity="0.8"/>
<path d="M37.3946 1.40083H35.896H34.0974V1.52155L34.2337 1.56983C34.4517 1.64227 34.4244 2.101 34.4244 2.39073V5.40873C34.4244 5.65018 34.4244 6.1572 34.2337 6.22965L34.0974 6.27791V6.39865H35.896V6.27791L35.7598 6.22965C35.5418 6.1572 35.569 5.65018 35.569 5.40873V4.41883H36.5501C36.5501 4.41883 36.9858 4.3947 37.0403 4.53954L37.0676 4.61199L37.1766 4.63612L37.2584 3.3082H37.1221L37.0948 3.38065C37.0676 3.47723 36.6591 3.52552 36.5501 3.50136H35.5418C35.5418 3.06678 35.5418 2.51145 35.5418 2.27001H36.8768C37.1766 2.27001 37.3401 2.34245 37.3946 2.46316L37.4219 2.5356H37.5581L37.8851 1.35254C37.9397 1.35254 37.5036 1.40083 37.3946 1.40083Z" fill="white" fill-opacity="0.8"/>
<path d="M60.5036 1.40107V1.52179L60.6126 1.57008C60.8579 1.71494 60.8852 1.93224 60.8852 2.34268V4.63637C60.1221 3.6706 58.4328 1.37692 58.4328 1.37692H57.1247V1.49764L57.2337 1.54593C57.4789 1.6908 57.5062 1.93224 57.5062 2.34268V5.33655C57.5062 5.747 57.5062 6.06087 57.2337 6.20574L57.1519 6.25403V6.37474H58.8143V6.25403L58.7053 6.20574C58.46 6.15745 58.46 5.747 58.46 5.33655V3.16357L60.0948 5.23997C60.3946 5.62629 60.8852 6.18158 61.4029 6.32645C61.8117 6.44718 61.8935 6.42303 61.8935 6.42303V2.36683C61.8935 1.95638 61.8935 1.71494 62.166 1.57008L62.275 1.52179V1.40107H60.5036Z" fill="white" fill-opacity="0.8"/>
<path d="M67.2072 2.12542C66.6621 1.64254 65.8446 1.37695 64.8365 1.37695H62.7926V1.49767L62.9016 1.52182L62.9561 1.54596C63.2014 1.61839 63.1469 2.12542 63.1469 2.391V5.409C63.1469 5.77116 63.1469 6.08506 62.8471 6.25406L62.7654 6.30235V6.39893H64.782C66.6349 6.39893 67.943 5.36071 67.943 3.86379C67.943 3.16361 67.6977 2.56001 67.2072 2.12542ZM66.2534 5.14342C65.8718 5.45729 65.3543 5.65045 64.7003 5.65045C64.564 5.65045 64.4823 5.62632 64.3188 5.60216V2.222C64.5368 2.17371 64.6458 2.14956 64.8365 2.14956C65.4633 2.14956 65.9263 2.29443 66.2534 2.58416C66.5804 2.8739 66.7439 3.35676 66.7439 3.93621C66.7439 4.41911 66.5531 4.85369 66.2534 5.14342Z" fill="white" fill-opacity="0.8"/>
<path d="M56.1151 5.4817V2.34299C56.1151 1.98083 56.1151 1.64281 56.3876 1.57038L56.4967 1.54623L56.4149 1.40137H54.5618V1.52209L54.6708 1.54623C54.9433 1.64281 54.916 2.02911 54.916 2.2947V4.68497C54.916 4.92639 54.916 5.04712 54.7798 5.21612C54.5618 5.4817 54.153 5.65073 53.7169 5.65073C53.363 5.65073 53.1177 5.57828 52.9269 5.40928C52.6817 5.21612 52.5727 4.85397 52.5727 4.39523V2.27055C52.5727 1.98083 52.5727 1.59452 52.8179 1.52209L52.9269 1.49794V1.40137H51.0193V1.52209L51.1283 1.54623C51.3736 1.61866 51.4008 2.0774 51.3736 2.43956V4.49181C51.3736 4.99883 51.3736 5.50586 51.8369 5.9646C52.2184 6.32676 52.7907 6.51992 53.4447 6.51992C53.9077 6.51992 54.48 6.3026 54.8888 6.01289V6.39918H56.4421V6.27847L56.3331 6.25431C56.1151 6.15776 56.0879 5.84386 56.1151 5.4817Z" fill="white" fill-opacity="0.8"/>
<path d="M72.0316 4.87802C72.0316 5.26431 71.8408 5.65062 71.4865 5.94036C71.0777 6.30252 70.5054 6.49565 69.8787 6.49565C69.3881 6.49565 68.9248 6.42323 68.4888 6.27836H68.4615L68.407 6.25423V6.20594V6.18178L68.189 5.28846L68.1618 5.1436L68.1345 5.02289H68.2708L68.4615 5.21602C68.8703 5.55404 69.4426 5.69891 69.9604 5.69891C70.3147 5.69891 70.8325 5.48162 70.8325 5.11944C70.8325 4.70899 70.3964 4.51586 69.8241 4.27441C69.1428 3.98467 68.3253 3.62251 68.3253 2.70504C68.3253 1.66685 69.4154 1.30469 70.3419 1.30469C70.7507 1.30469 71.1322 1.35298 71.4865 1.4737H71.5138L71.5955 1.49784V1.57027V1.59442V2.22216V2.43946V2.58432L71.4048 2.4636L71.214 2.36703C71.0505 2.27045 70.6417 2.12559 70.2874 2.12559C70.1512 2.12559 69.8514 2.14973 69.6606 2.31874C69.5789 2.39117 69.5244 2.48775 69.5244 2.63261C69.5244 2.99478 70.0149 3.21207 70.5327 3.42936C71.1867 3.71909 72.0316 4.08125 72.0316 4.87802Z" fill="white" fill-opacity="0.8"/>
</g>
</g>
<defs>
<clipPath id="clip0_101_1047">
<rect width="71.5" height="6.5" fill="white" transform="translate(0.678589 0.130829)"/>
</clipPath>
<clipPath id="clip1_101_1047">
<rect width="71.5" height="6.5" fill="white" transform="translate(0.678589 0.130829)"/>
</clipPath>
</defs>
</svg>
