<svg width="35" height="11" viewBox="0 0 35 11" fill="none" xmlns="http://www.w3.org/2000/svg">
<g clip-path="url(#clip0_101_1037)">
<g clip-path="url(#clip1_101_1037)">
<path d="M9.26534 10.6311L27.8921 8.93066H7.65088L9.26534 10.6311Z" fill="white" fill-opacity="0.8"/>
<path d="M32.2119 1.91602C31.8298 1.92542 31.4583 2.05089 31.1423 2.27735V2.04355H29.8911V7.82492H31.1423V4.44537C31.1335 4.2973 31.1536 4.14891 31.2013 4.00934C31.2491 3.86976 31.3235 3.74197 31.4199 3.63384C31.5163 3.52571 31.6328 3.43953 31.762 3.38062C31.8913 3.32171 32.0307 3.29132 32.1715 3.29132C32.3124 3.29132 32.4518 3.32171 32.581 3.38062C32.7103 3.43953 32.8267 3.52571 32.9232 3.63384C33.0196 3.74197 33.094 3.86976 33.1417 4.00934C33.1895 4.14891 33.2096 4.2973 33.2008 4.44537V7.84618H34.452V4.44537C34.452 3.04253 33.5438 1.91602 32.2119 1.91602Z" fill="white" fill-opacity="0.8"/>
<path d="M27.0042 1.89551C25.5512 1.89551 24.522 3.23458 24.522 4.93498C24.522 6.72041 25.8135 7.97446 27.1253 7.97446C27.7913 7.97446 28.6187 7.74065 29.325 6.6779L28.2151 5.99773C27.3675 7.31555 25.9346 6.65664 25.7732 5.31757H29.3654C29.6882 3.27709 28.4169 1.89551 27.0042 1.89551ZM25.8539 4.19105C26.1163 2.85199 27.8518 2.76697 28.094 4.19105H25.8539Z" fill="white" fill-opacity="0.8"/>
<path d="M21.8598 5.9124C21.8487 6.17734 21.8884 6.44193 21.9764 6.69038C22.0645 6.93882 22.1992 7.16603 22.3725 7.35845C22.5458 7.55087 22.7541 7.70456 22.985 7.81034C23.2159 7.91612 23.4646 7.97183 23.7164 7.97414C24.1418 7.95844 24.5573 7.83446 24.9273 7.6128L24.1201 6.46503C23.9961 6.55817 23.8485 6.61 23.6963 6.61381C23.6131 6.61134 23.5313 6.59084 23.456 6.55359C23.3807 6.51635 23.3135 6.46316 23.2586 6.39734C23.2037 6.33153 23.1622 6.2545 23.1369 6.17106C23.1115 6.08762 23.1027 5.99957 23.111 5.9124V3.42556H24.1806V2.04398H23.111V0.598633H21.8598V2.04398H21.1938V3.42556H21.8598V5.9124Z" fill="white" fill-opacity="0.8"/>
<path d="M18.4476 7.97411C18.8297 7.96471 19.2011 7.83923 19.5172 7.61277V7.82532H20.7684V2.04395H19.5172V5.44475C19.526 5.59282 19.5059 5.74121 19.4581 5.88079C19.4104 6.02036 19.336 6.14815 19.2396 6.25628C19.1432 6.36442 19.0267 6.45059 18.8974 6.5095C18.7682 6.56841 18.6288 6.5988 18.4879 6.5988C18.3471 6.5988 18.2077 6.56841 18.0785 6.5095C17.9492 6.45059 17.8327 6.36442 17.7363 6.25628C17.6399 6.14815 17.5655 6.02036 17.5177 5.88079C17.47 5.74121 17.4499 5.59282 17.4587 5.44475V2.04395H16.2075V5.44475C16.2075 6.84759 17.1157 7.97411 18.4476 7.97411Z" fill="white" fill-opacity="0.8"/>
<path d="M12.7582 5.46588L14.6148 7.84645H16.3504L13.8681 4.76446L16.0073 2.04382H14.2718L12.7582 4.06305V0.130859H11.4868V7.84645H12.7582V5.46588Z" fill="white" fill-opacity="0.8"/>
<path d="M9.52885 7.57061V7.82567H10.7801V2.04429H9.52885V2.29935C9.18787 2.0402 8.77884 1.89907 8.35837 1.89551C6.94572 1.89551 5.85596 3.25583 5.85596 4.93498C5.85596 6.61413 6.92554 7.97446 8.35837 7.97446C8.77935 7.9742 9.18932 7.83275 9.52885 7.57061ZM7.12734 4.95624C7.12734 4.04227 7.63186 3.3196 8.33819 3.3196C9.04451 3.3196 9.52885 4.04227 9.52885 4.95624C9.52885 5.8702 9.04451 6.59288 8.33819 6.59288C7.63186 6.59288 7.12734 5.8702 7.12734 4.95624Z" fill="white" fill-opacity="0.8"/>
<path d="M5.45196 3.08547C5.45143 2.4261 5.20249 1.79389 4.75981 1.32763C4.31712 0.861382 3.71687 0.599196 3.09082 0.598633H0.95166V7.82535H2.26341V5.59357H3.17154L4.76582 7.82535H6.40046L4.46311 5.12596C4.77228 4.89538 5.02375 4.58928 5.19597 4.2339C5.3682 3.87852 5.45604 3.48445 5.45196 3.08547ZM3.111 4.23325H2.26341V1.98021H3.111C3.39467 1.98021 3.66672 2.0989 3.8673 2.31016C4.06789 2.52142 4.18058 2.80796 4.18058 3.10673C4.18058 3.4055 4.06789 3.69204 3.8673 3.9033C3.66672 4.11456 3.39467 4.23325 3.111 4.23325Z" fill="white" fill-opacity="0.8"/>
</g>
</g>
<defs>
<clipPath id="clip0_101_1037">
<rect width="33.5" height="10.5" fill="white" transform="translate(0.952393 0.130829)"/>
</clipPath>
<clipPath id="clip1_101_1037">
<rect width="33.5" height="10.5" fill="white" transform="translate(0.952393 0.130829)"/>
</clipPath>
</defs>
</svg>
